ISO-10303-21;
HEADER;
/* Generated by software containing ST-Developer
 * from STEP Tools, Inc. (www.steptools.com) 
 */

FILE_DESCRIPTION(
/* description */ (''),
/* implementation_level */ '2;1');

FILE_NAME(
/* name */ 'bottom.step',
/* time_stamp */ '2026-08-12T18:24:22-04:00',
/* author */ (''),
/* organization */ (''),
/* preprocessor_version */ 'ST-DEVELOPER v20.1',
/* originating_system */ 'Autodesk Translation Framework v15.8.0.0',
/* authorisation */ '');

FILE_SCHEMA (('AUTOMOTIVE_DESIGN { 1 0 10303 214 3 1 1 }'));
ENDSEC;

DATA;
#10=MECHANICAL_DESIGN_GEOMETRIC_PRESENTATION_REPRESENTATION('',(#13),#1077);
#11=SHAPE_REPRESENTATION_RELATIONSHIP('SRR','None',#1084,#12);
#12=ADVANCED_BREP_SHAPE_REPRESENTATION('',(#14),#1076);
#13=STYLED_ITEM('',(#1093),#14);
#14=MANIFOLD_SOLID_BREP('Body8',#636);
#15=FACE_BOUND('',#113,.T.);
#16=FACE_BOUND('',#118,.T.);
#17=FACE_BOUND('',#119,.T.);
#18=FACE_BOUND('',#120,.T.);
#19=FACE_BOUND('',#121,.T.);
#20=FACE_BOUND('',#122,.T.);
#21=FACE_BOUND('',#132,.T.);
#22=CIRCLE('',#652,2.);
#23=CIRCLE('',#653,2.);
#24=CIRCLE('',#656,2.);
#25=CIRCLE('',#657,2.);
#26=CIRCLE('',#660,2.);
#27=CIRCLE('',#661,2.);
#28=CIRCLE('',#664,1.99999999999969);
#29=CIRCLE('',#665,1.99999999999969);
#30=CIRCLE('',#667,2.1);
#31=CIRCLE('',#668,2.1);
#32=CIRCLE('',#671,2.1);
#33=CIRCLE('',#672,2.1);
#34=CIRCLE('',#675,2.1);
#35=CIRCLE('',#676,2.1);
#36=CIRCLE('',#679,2.1);
#37=CIRCLE('',#680,2.1);
#38=CIRCLE('',#689,2.00000000000001);
#39=CIRCLE('',#690,1.99999999999999);
#40=CIRCLE('',#691,1.99999999999999);
#41=CIRCLE('',#692,2.);
#42=CIRCLE('',#694,2.00000000000001);
#43=CIRCLE('',#700,2.);
#44=CIRCLE('',#703,1.99999999999999);
#45=CIRCLE('',#706,1.99999999999999);
#46=CYLINDRICAL_SURFACE('',#651,2.);
#47=CYLINDRICAL_SURFACE('',#655,2.);
#48=CYLINDRICAL_SURFACE('',#659,2.);
#49=CYLINDRICAL_SURFACE('',#663,1.99999999999969);
#50=CYLINDRICAL_SURFACE('',#666,2.1);
#51=CYLINDRICAL_SURFACE('',#670,2.1);
#52=CYLINDRICAL_SURFACE('',#674,2.1);
#53=CYLINDRICAL_SURFACE('',#678,2.1);
#54=CYLINDRICAL_SURFACE('',#693,2.00000000000001);
#55=CYLINDRICAL_SURFACE('',#699,2.);
#56=CYLINDRICAL_SURFACE('',#702,1.99999999999999);
#57=CYLINDRICAL_SURFACE('',#705,1.99999999999999);
#58=FACE_OUTER_BOUND('',#94,.T.);
#59=FACE_OUTER_BOUND('',#95,.T.);
#60=FACE_OUTER_BOUND('',#96,.T.);
#61=FACE_OUTER_BOUND('',#97,.T.);
#62=FACE_OUTER_BOUND('',#98,.T.);
#63=FACE_OUTER_BOUND('',#99,.T.);
#64=FACE_OUTER_BOUND('',#100,.T.);
#65=FACE_OUTER_BOUND('',#101,.T.);
#66=FACE_OUTER_BOUND('',#102,.T.);
#67=FACE_OUTER_BOUND('',#103,.T.);
#68=FACE_OUTER_BOUND('',#104,.T.);
#69=FACE_OUTER_BOUND('',#105,.T.);
#70=FACE_OUTER_BOUND('',#106,.T.);
#71=FACE_OUTER_BOUND('',#107,.T.);
#72=FACE_OUTER_BOUND('',#108,.T.);
#73=FACE_OUTER_BOUND('',#109,.T.);
#74=FACE_OUTER_BOUND('',#110,.T.);
#75=FACE_OUTER_BOUND('',#111,.T.);
#76=FACE_OUTER_BOUND('',#112,.T.);
#77=FACE_OUTER_BOUND('',#114,.T.);
#78=FACE_OUTER_BOUND('',#115,.T.);
#79=FACE_OUTER_BOUND('',#116,.T.);
#80=FACE_OUTER_BOUND('',#117,.T.);
#81=FACE_OUTER_BOUND('',#123,.T.);
#82=FACE_OUTER_BOUND('',#124,.T.);
#83=FACE_OUTER_BOUND('',#125,.T.);
#84=FACE_OUTER_BOUND('',#126,.T.);
#85=FACE_OUTER_BOUND('',#127,.T.);
#86=FACE_OUTER_BOUND('',#128,.T.);
#87=FACE_OUTER_BOUND('',#129,.T.);
#88=FACE_OUTER_BOUND('',#130,.T.);
#89=FACE_OUTER_BOUND('',#131,.T.);
#90=FACE_OUTER_BOUND('',#133,.T.);
#91=FACE_OUTER_BOUND('',#134,.T.);
#92=FACE_OUTER_BOUND('',#135,.T.);
#93=FACE_OUTER_BOUND('',#136,.T.);
#94=EDGE_LOOP('',(#404,#405,#406,#407));
#95=EDGE_LOOP('',(#408,#409,#410,#411));
#96=EDGE_LOOP('',(#412,#413,#414,#415));
#97=EDGE_LOOP('',(#416,#417,#418,#419));
#98=EDGE_LOOP('',(#420,#421,#422,#423));
#99=EDGE_LOOP('',(#424,#425,#426,#427));
#100=EDGE_LOOP('',(#428,#429,#430,#431));
#101=EDGE_LOOP('',(#432,#433,#434,#435));
#102=EDGE_LOOP('',(#436,#437,#438,#439));
#103=EDGE_LOOP('',(#440));
#104=EDGE_LOOP('',(#441,#442,#443,#444));
#105=EDGE_LOOP('',(#445));
#106=EDGE_LOOP('',(#446,#447,#448,#449));
#107=EDGE_LOOP('',(#450));
#108=EDGE_LOOP('',(#451,#452,#453,#454));
#109=EDGE_LOOP('',(#455));
#110=EDGE_LOOP('',(#456,#457,#458,#459));
#111=EDGE_LOOP('',(#460,#461,#462,#463));
#112=EDGE_LOOP('',(#464,#465,#466,#467));
#113=EDGE_LOOP('',(#468,#469,#470,#471,#472,#473,#474,#475));
#114=EDGE_LOOP('',(#476,#477,#478,#479));
#115=EDGE_LOOP('',(#480,#481,#482,#483));
#116=EDGE_LOOP('',(#484,#485,#486,#487));
#117=EDGE_LOOP('',(#488,#489,#490,#491,#492,#493,#494,#495,#496,#497,#498));
#118=EDGE_LOOP('',(#499,#500,#501,#502));
#119=EDGE_LOOP('',(#503));
#120=EDGE_LOOP('',(#504));
#121=EDGE_LOOP('',(#505));
#122=EDGE_LOOP('',(#506));
#123=EDGE_LOOP('',(#507,#508,#509,#510));
#124=EDGE_LOOP('',(#511,#512,#513,#514));
#125=EDGE_LOOP('',(#515,#516,#517,#518,#519));
#126=EDGE_LOOP('',(#520,#521,#522,#523));
#127=EDGE_LOOP('',(#524,#525,#526,#527));
#128=EDGE_LOOP('',(#528,#529,#530,#531,#532));
#129=EDGE_LOOP('',(#533,#534,#535,#536));
#130=EDGE_LOOP('',(#537,#538,#539,#540));
#131=EDGE_LOOP('',(#541,#542,#543,#544));
#132=EDGE_LOOP('',(#545,#546,#547,#548,#549,#550,#551,#552));
#133=EDGE_LOOP('',(#553,#554,#555,#556));
#134=EDGE_LOOP('',(#557,#558,#559,#560));
#135=EDGE_LOOP('',(#561,#562,#563,#564));
#136=EDGE_LOOP('',(#565,#566,#567,#568,#569,#570,#571,#572,#573,#574,#575));
#137=LINE('',#898,#199);
#138=LINE('',#900,#200);
#139=LINE('',#902,#201);
#140=LINE('',#903,#202);
#141=LINE('',#909,#203);
#142=LINE('',#912,#204);
#143=LINE('',#914,#205);
#144=LINE('',#915,#206);
#145=LINE('',#921,#207);
#146=LINE('',#924,#208);
#147=LINE('',#926,#209);
#148=LINE('',#927,#210);
#149=LINE('',#933,#211);
#150=LINE('',#936,#212);
#151=LINE('',#938,#213);
#152=LINE('',#939,#214);
#153=LINE('',#947,#215);
#154=LINE('',#954,#216);
#155=LINE('',#961,#217);
#156=LINE('',#968,#218);
#157=LINE('',#974,#219);
#158=LINE('',#976,#220);
#159=LINE('',#978,#221);
#160=LINE('',#979,#222);
#161=LINE('',#982,#223);
#162=LINE('',#984,#224);
#163=LINE('',#985,#225);
#164=LINE('',#988,#226);
#165=LINE('',#990,#227);
#166=LINE('',#991,#228);
#167=LINE('',#993,#229);
#168=LINE('',#994,#230);
#169=LINE('',#998,#231);
#170=LINE('',#1000,#232);
#171=LINE('',#1002,#233);
#172=LINE('',#1003,#234);
#173=LINE('',#1006,#235);
#174=LINE('',#1008,#236);
#175=LINE('',#1009,#237);
#176=LINE('',#1015,#238);
#177=LINE('',#1019,#239);
#178=LINE('',#1023,#240);
#179=LINE('',#1026,#241);
#180=LINE('',#1027,#242);
#181=LINE('',#1032,#243);
#182=LINE('',#1033,#244);
#183=LINE('',#1036,#245);
#184=LINE('',#1037,#246);
#185=LINE('',#1040,#247);
#186=LINE('',#1041,#248);
#187=LINE('',#1044,#249);
#188=LINE('',#1045,#250);
#189=LINE('',#1048,#251);
#190=LINE('',#1049,#252);
#191=LINE('',#1053,#253);
#192=LINE('',#1056,#254);
#193=LINE('',#1057,#255);
#194=LINE('',#1061,#256);
#195=LINE('',#1064,#257);
#196=LINE('',#1065,#258);
#197=LINE('',#1069,#259);
#198=LINE('',#1071,#260);
#199=VECTOR('',#714,10.);
#200=VECTOR('',#715,10.);
#201=VECTOR('',#716,10.);
#202=VECTOR('',#717,10.);
#203=VECTOR('',#724,10.);
#204=VECTOR('',#727,10.);
#205=VECTOR('',#728,10.);
#206=VECTOR('',#729,10.);
#207=VECTOR('',#736,10.);
#208=VECTOR('',#739,10.);
#209=VECTOR('',#740,10.);
#210=VECTOR('',#741,10.);
#211=VECTOR('',#748,10.);
#212=VECTOR('',#751,10.);
#213=VECTOR('',#752,10.);
#214=VECTOR('',#753,10.);
#215=VECTOR('',#764,2.1);
#216=VECTOR('',#773,2.1);
#217=VECTOR('',#782,2.1);
#218=VECTOR('',#791,2.1);
#219=VECTOR('',#798,10.);
#220=VECTOR('',#799,10.);
#221=VECTOR('',#800,10.);
#222=VECTOR('',#801,10.);
#223=VECTOR('',#804,10.);
#224=VECTOR('',#805,10.);
#225=VECTOR('',#806,10.);
#226=VECTOR('',#809,10.);
#227=VECTOR('',#810,10.);
#228=VECTOR('',#811,10.);
#229=VECTOR('',#814,10.);
#230=VECTOR('',#815,10.);
#231=VECTOR('',#818,10.);
#232=VECTOR('',#819,10.);
#233=VECTOR('',#820,10.);
#234=VECTOR('',#821,10.);
#235=VECTOR('',#824,10.);
#236=VECTOR('',#825,10.);
#237=VECTOR('',#826,10.);
#238=VECTOR('',#831,10.);
#239=VECTOR('',#834,10.);
#240=VECTOR('',#837,10.);
#241=VECTOR('',#840,10.);
#242=VECTOR('',#841,10.);
#243=VECTOR('',#846,10.);
#244=VECTOR('',#847,10.);
#245=VECTOR('',#850,10.);
#246=VECTOR('',#851,10.);
#247=VECTOR('',#854,10.);
#248=VECTOR('',#855,10.);
#249=VECTOR('',#858,10.);
#250=VECTOR('',#859,10.);
#251=VECTOR('',#862,10.);
#252=VECTOR('',#863,10.);
#253=VECTOR('',#868,10.);
#254=VECTOR('',#871,10.);
#255=VECTOR('',#872,10.);
#256=VECTOR('',#877,10.);
#257=VECTOR('',#880,10.);
#258=VECTOR('',#881,10.);
#259=VECTOR('',#886,10.);
#260=VECTOR('',#889,10.);
#261=VERTEX_POINT('',#896);
#262=VERTEX_POINT('',#897);
#263=VERTEX_POINT('',#899);
#264=VERTEX_POINT('',#901);
#265=VERTEX_POINT('',#905);
#266=VERTEX_POINT('',#907);
#267=VERTEX_POINT('',#911);
#268=VERTEX_POINT('',#913);
#269=VERTEX_POINT('',#917);
#270=VERTEX_POINT('',#919);
#271=VERTEX_POINT('',#923);
#272=VERTEX_POINT('',#925);
#273=VERTEX_POINT('',#929);
#274=VERTEX_POINT('',#931);
#275=VERTEX_POINT('',#935);
#276=VERTEX_POINT('',#937);
#277=VERTEX_POINT('',#944);
#278=VERTEX_POINT('',#946);
#279=VERTEX_POINT('',#951);
#280=VERTEX_POINT('',#953);
#281=VERTEX_POINT('',#958);
#282=VERTEX_POINT('',#960);
#283=VERTEX_POINT('',#965);
#284=VERTEX_POINT('',#967);
#285=VERTEX_POINT('',#972);
#286=VERTEX_POINT('',#973);
#287=VERTEX_POINT('',#975);
#288=VERTEX_POINT('',#977);
#289=VERTEX_POINT('',#981);
#290=VERTEX_POINT('',#983);
#291=VERTEX_POINT('',#987);
#292=VERTEX_POINT('',#989);
#293=VERTEX_POINT('',#996);
#294=VERTEX_POINT('',#997);
#295=VERTEX_POINT('',#999);
#296=VERTEX_POINT('',#1001);
#297=VERTEX_POINT('',#1005);
#298=VERTEX_POINT('',#1007);
#299=VERTEX_POINT('',#1011);
#300=VERTEX_POINT('',#1012);
#301=VERTEX_POINT('',#1014);
#302=VERTEX_POINT('',#1016);
#303=VERTEX_POINT('',#1018);
#304=VERTEX_POINT('',#1020);
#305=VERTEX_POINT('',#1022);
#306=VERTEX_POINT('',#1025);
#307=VERTEX_POINT('',#1029);
#308=VERTEX_POINT('',#1030);
#309=VERTEX_POINT('',#1035);
#310=VERTEX_POINT('',#1039);
#311=VERTEX_POINT('',#1043);
#312=VERTEX_POINT('',#1047);
#313=VERTEX_POINT('',#1051);
#314=VERTEX_POINT('',#1055);
#315=VERTEX_POINT('',#1059);
#316=VERTEX_POINT('',#1063);
#317=VERTEX_POINT('',#1067);
#318=EDGE_CURVE('',#261,#262,#137,.T.);
#319=EDGE_CURVE('',#263,#261,#138,.T.);
#320=EDGE_CURVE('',#264,#263,#139,.T.);
#321=EDGE_CURVE('',#264,#262,#140,.T.);
#322=EDGE_CURVE('',#262,#265,#22,.T.);
#323=EDGE_CURVE('',#266,#264,#23,.T.);
#324=EDGE_CURVE('',#266,#265,#141,.T.);
#325=EDGE_CURVE('',#265,#267,#142,.T.);
#326=EDGE_CURVE('',#268,#266,#143,.T.);
#327=EDGE_CURVE('',#268,#267,#144,.T.);
#328=EDGE_CURVE('',#267,#269,#24,.T.);
#329=EDGE_CURVE('',#270,#268,#25,.T.);
#330=EDGE_CURVE('',#270,#269,#145,.T.);
#331=EDGE_CURVE('',#269,#271,#146,.T.);
#332=EDGE_CURVE('',#272,#270,#147,.T.);
#333=EDGE_CURVE('',#272,#271,#148,.T.);
#334=EDGE_CURVE('',#271,#273,#26,.T.);
#335=EDGE_CURVE('',#274,#272,#27,.T.);
#336=EDGE_CURVE('',#274,#273,#149,.T.);
#337=EDGE_CURVE('',#273,#275,#150,.T.);
#338=EDGE_CURVE('',#276,#274,#151,.T.);
#339=EDGE_CURVE('',#276,#275,#152,.T.);
#340=EDGE_CURVE('',#275,#261,#28,.T.);
#341=EDGE_CURVE('',#263,#276,#29,.T.);
#342=EDGE_CURVE('',#277,#277,#30,.T.);
#343=EDGE_CURVE('',#277,#278,#153,.T.);
#344=EDGE_CURVE('',#278,#278,#31,.T.);
#345=EDGE_CURVE('',#279,#279,#32,.T.);
#346=EDGE_CURVE('',#279,#280,#154,.T.);
#347=EDGE_CURVE('',#280,#280,#33,.T.);
#348=EDGE_CURVE('',#281,#281,#34,.T.);
#349=EDGE_CURVE('',#281,#282,#155,.T.);
#350=EDGE_CURVE('',#282,#282,#35,.T.);
#351=EDGE_CURVE('',#283,#283,#36,.T.);
#352=EDGE_CURVE('',#283,#284,#156,.T.);
#353=EDGE_CURVE('',#284,#284,#37,.T.);
#354=EDGE_CURVE('',#285,#286,#157,.T.);
#355=EDGE_CURVE('',#285,#287,#158,.T.);
#356=EDGE_CURVE('',#288,#287,#159,.T.);
#357=EDGE_CURVE('',#286,#288,#160,.T.);
#358=EDGE_CURVE('',#286,#289,#161,.T.);
#359=EDGE_CURVE('',#290,#288,#162,.T.);
#360=EDGE_CURVE('',#289,#290,#163,.T.);
#361=EDGE_CURVE('',#289,#291,#164,.T.);
#362=EDGE_CURVE('',#292,#290,#165,.T.);
#363=EDGE_CURVE('',#291,#292,#166,.T.);
#364=EDGE_CURVE('',#291,#285,#167,.T.);
#365=EDGE_CURVE('',#287,#292,#168,.T.);
#366=EDGE_CURVE('',#293,#294,#169,.T.);
#367=EDGE_CURVE('',#294,#295,#170,.T.);
#368=EDGE_CURVE('',#296,#295,#171,.T.);
#369=EDGE_CURVE('',#293,#296,#172,.T.);
#370=EDGE_CURVE('',#297,#293,#173,.T.);
#371=EDGE_CURVE('',#298,#296,#174,.T.);
#372=EDGE_CURVE('',#297,#298,#175,.T.);
#373=EDGE_CURVE('',#299,#300,#38,.T.);
#374=EDGE_CURVE('',#300,#301,#176,.T.);
#375=EDGE_CURVE('',#301,#302,#39,.T.);
#376=EDGE_CURVE('',#302,#303,#177,.T.);
#377=EDGE_CURVE('',#303,#304,#40,.T.);
#378=EDGE_CURVE('',#304,#305,#178,.T.);
#379=EDGE_CURVE('',#305,#298,#41,.T.);
#380=EDGE_CURVE('',#295,#306,#179,.T.);
#381=EDGE_CURVE('',#306,#299,#180,.T.);
#382=EDGE_CURVE('',#307,#308,#42,.T.);
#383=EDGE_CURVE('',#308,#300,#181,.T.);
#384=EDGE_CURVE('',#307,#299,#182,.T.);
#385=EDGE_CURVE('',#307,#309,#183,.T.);
#386=EDGE_CURVE('',#309,#306,#184,.T.);
#387=EDGE_CURVE('',#309,#310,#185,.T.);
#388=EDGE_CURVE('',#310,#294,#186,.T.);
#389=EDGE_CURVE('',#311,#310,#187,.T.);
#390=EDGE_CURVE('',#311,#293,#188,.T.);
#391=EDGE_CURVE('',#312,#311,#189,.T.);
#392=EDGE_CURVE('',#312,#297,#190,.T.);
#393=EDGE_CURVE('',#313,#312,#43,.T.);
#394=EDGE_CURVE('',#313,#305,#191,.T.);
#395=EDGE_CURVE('',#313,#314,#192,.T.);
#396=EDGE_CURVE('',#314,#304,#193,.T.);
#397=EDGE_CURVE('',#315,#314,#44,.T.);
#398=EDGE_CURVE('',#315,#303,#194,.T.);
#399=EDGE_CURVE('',#316,#315,#195,.T.);
#400=EDGE_CURVE('',#316,#302,#196,.T.);
#401=EDGE_CURVE('',#317,#316,#45,.T.);
#402=EDGE_CURVE('',#317,#301,#197,.T.);
#403=EDGE_CURVE('',#317,#308,#198,.T.);
#404=ORIENTED_EDGE('',*,*,#318,.F.);
#405=ORIENTED_EDGE('',*,*,#319,.F.);
#406=ORIENTED_EDGE('',*,*,#320,.F.);
#407=ORIENTED_EDGE('',*,*,#321,.T.);
#408=ORIENTED_EDGE('',*,*,#322,.F.);
#409=ORIENTED_EDGE('',*,*,#321,.F.);
#410=ORIENTED_EDGE('',*,*,#323,.F.);
#411=ORIENTED_EDGE('',*,*,#324,.T.);
#412=ORIENTED_EDGE('',*,*,#325,.F.);
#413=ORIENTED_EDGE('',*,*,#324,.F.);
#414=ORIENTED_EDGE('',*,*,#326,.F.);
#415=ORIENTED_EDGE('',*,*,#327,.T.);
#416=ORIENTED_EDGE('',*,*,#328,.F.);
#417=ORIENTED_EDGE('',*,*,#327,.F.);
#418=ORIENTED_EDGE('',*,*,#329,.F.);
#419=ORIENTED_EDGE('',*,*,#330,.T.);
#420=ORIENTED_EDGE('',*,*,#331,.F.);
#421=ORIENTED_EDGE('',*,*,#330,.F.);
#422=ORIENTED_EDGE('',*,*,#332,.F.);
#423=ORIENTED_EDGE('',*,*,#333,.T.);
#424=ORIENTED_EDGE('',*,*,#334,.F.);
#425=ORIENTED_EDGE('',*,*,#333,.F.);
#426=ORIENTED_EDGE('',*,*,#335,.F.);
#427=ORIENTED_EDGE('',*,*,#336,.T.);
#428=ORIENTED_EDGE('',*,*,#337,.F.);
#429=ORIENTED_EDGE('',*,*,#336,.F.);
#430=ORIENTED_EDGE('',*,*,#338,.F.);
#431=ORIENTED_EDGE('',*,*,#339,.T.);
#432=ORIENTED_EDGE('',*,*,#340,.F.);
#433=ORIENTED_EDGE('',*,*,#339,.F.);
#434=ORIENTED_EDGE('',*,*,#341,.F.);
#435=ORIENTED_EDGE('',*,*,#319,.T.);
#436=ORIENTED_EDGE('',*,*,#342,.F.);
#437=ORIENTED_EDGE('',*,*,#343,.T.);
#438=ORIENTED_EDGE('',*,*,#344,.T.);
#439=ORIENTED_EDGE('',*,*,#343,.F.);
#440=ORIENTED_EDGE('',*,*,#344,.F.);
#441=ORIENTED_EDGE('',*,*,#345,.F.);
#442=ORIENTED_EDGE('',*,*,#346,.T.);
#443=ORIENTED_EDGE('',*,*,#347,.T.);
#444=ORIENTED_EDGE('',*,*,#346,.F.);
#445=ORIENTED_EDGE('',*,*,#347,.F.);
#446=ORIENTED_EDGE('',*,*,#348,.F.);
#447=ORIENTED_EDGE('',*,*,#349,.T.);
#448=ORIENTED_EDGE('',*,*,#350,.T.);
#449=ORIENTED_EDGE('',*,*,#349,.F.);
#450=ORIENTED_EDGE('',*,*,#350,.F.);
#451=ORIENTED_EDGE('',*,*,#351,.F.);
#452=ORIENTED_EDGE('',*,*,#352,.T.);
#453=ORIENTED_EDGE('',*,*,#353,.T.);
#454=ORIENTED_EDGE('',*,*,#352,.F.);
#455=ORIENTED_EDGE('',*,*,#353,.F.);
#456=ORIENTED_EDGE('',*,*,#354,.F.);
#457=ORIENTED_EDGE('',*,*,#355,.T.);
#458=ORIENTED_EDGE('',*,*,#356,.F.);
#459=ORIENTED_EDGE('',*,*,#357,.F.);
#460=ORIENTED_EDGE('',*,*,#358,.F.);
#461=ORIENTED_EDGE('',*,*,#357,.T.);
#462=ORIENTED_EDGE('',*,*,#359,.F.);
#463=ORIENTED_EDGE('',*,*,#360,.F.);
#464=ORIENTED_EDGE('',*,*,#361,.F.);
#465=ORIENTED_EDGE('',*,*,#360,.T.);
#466=ORIENTED_EDGE('',*,*,#362,.F.);
#467=ORIENTED_EDGE('',*,*,#363,.F.);
#468=ORIENTED_EDGE('',*,*,#331,.T.);
#469=ORIENTED_EDGE('',*,*,#334,.T.);
#470=ORIENTED_EDGE('',*,*,#337,.T.);
#471=ORIENTED_EDGE('',*,*,#340,.T.);
#472=ORIENTED_EDGE('',*,*,#318,.T.);
#473=ORIENTED_EDGE('',*,*,#322,.T.);
#474=ORIENTED_EDGE('',*,*,#325,.T.);
#475=ORIENTED_EDGE('',*,*,#328,.T.);
#476=ORIENTED_EDGE('',*,*,#364,.F.);
#477=ORIENTED_EDGE('',*,*,#363,.T.);
#478=ORIENTED_EDGE('',*,*,#365,.F.);
#479=ORIENTED_EDGE('',*,*,#355,.F.);
#480=ORIENTED_EDGE('',*,*,#366,.T.);
#481=ORIENTED_EDGE('',*,*,#367,.T.);
#482=ORIENTED_EDGE('',*,*,#368,.F.);
#483=ORIENTED_EDGE('',*,*,#369,.F.);
#484=ORIENTED_EDGE('',*,*,#370,.T.);
#485=ORIENTED_EDGE('',*,*,#369,.T.);
#486=ORIENTED_EDGE('',*,*,#371,.F.);
#487=ORIENTED_EDGE('',*,*,#372,.F.);
#488=ORIENTED_EDGE('',*,*,#373,.T.);
#489=ORIENTED_EDGE('',*,*,#374,.T.);
#490=ORIENTED_EDGE('',*,*,#375,.T.);
#491=ORIENTED_EDGE('',*,*,#376,.T.);
#492=ORIENTED_EDGE('',*,*,#377,.T.);
#493=ORIENTED_EDGE('',*,*,#378,.T.);
#494=ORIENTED_EDGE('',*,*,#379,.T.);
#495=ORIENTED_EDGE('',*,*,#371,.T.);
#496=ORIENTED_EDGE('',*,*,#368,.T.);
#497=ORIENTED_EDGE('',*,*,#380,.T.);
#498=ORIENTED_EDGE('',*,*,#381,.T.);
#499=ORIENTED_EDGE('',*,*,#365,.T.);
#500=ORIENTED_EDGE('',*,*,#362,.T.);
#501=ORIENTED_EDGE('',*,*,#359,.T.);
#502=ORIENTED_EDGE('',*,*,#356,.T.);
#503=ORIENTED_EDGE('',*,*,#351,.T.);
#504=ORIENTED_EDGE('',*,*,#348,.T.);
#505=ORIENTED_EDGE('',*,*,#345,.T.);
#506=ORIENTED_EDGE('',*,*,#342,.T.);
#507=ORIENTED_EDGE('',*,*,#382,.T.);
#508=ORIENTED_EDGE('',*,*,#383,.T.);
#509=ORIENTED_EDGE('',*,*,#373,.F.);
#510=ORIENTED_EDGE('',*,*,#384,.F.);
#511=ORIENTED_EDGE('',*,*,#385,.F.);
#512=ORIENTED_EDGE('',*,*,#384,.T.);
#513=ORIENTED_EDGE('',*,*,#381,.F.);
#514=ORIENTED_EDGE('',*,*,#386,.F.);
#515=ORIENTED_EDGE('',*,*,#387,.F.);
#516=ORIENTED_EDGE('',*,*,#386,.T.);
#517=ORIENTED_EDGE('',*,*,#380,.F.);
#518=ORIENTED_EDGE('',*,*,#367,.F.);
#519=ORIENTED_EDGE('',*,*,#388,.F.);
#520=ORIENTED_EDGE('',*,*,#389,.T.);
#521=ORIENTED_EDGE('',*,*,#388,.T.);
#522=ORIENTED_EDGE('',*,*,#366,.F.);
#523=ORIENTED_EDGE('',*,*,#390,.F.);
#524=ORIENTED_EDGE('',*,*,#391,.T.);
#525=ORIENTED_EDGE('',*,*,#390,.T.);
#526=ORIENTED_EDGE('',*,*,#370,.F.);
#527=ORIENTED_EDGE('',*,*,#392,.F.);
#528=ORIENTED_EDGE('',*,*,#393,.T.);
#529=ORIENTED_EDGE('',*,*,#392,.T.);
#530=ORIENTED_EDGE('',*,*,#372,.T.);
#531=ORIENTED_EDGE('',*,*,#379,.F.);
#532=ORIENTED_EDGE('',*,*,#394,.F.);
#533=ORIENTED_EDGE('',*,*,#395,.F.);
#534=ORIENTED_EDGE('',*,*,#394,.T.);
#535=ORIENTED_EDGE('',*,*,#378,.F.);
#536=ORIENTED_EDGE('',*,*,#396,.F.);
#537=ORIENTED_EDGE('',*,*,#397,.T.);
#538=ORIENTED_EDGE('',*,*,#396,.T.);
#539=ORIENTED_EDGE('',*,*,#377,.F.);
#540=ORIENTED_EDGE('',*,*,#398,.F.);
#541=ORIENTED_EDGE('',*,*,#399,.T.);
#542=ORIENTED_EDGE('',*,*,#398,.T.);
#543=ORIENTED_EDGE('',*,*,#376,.F.);
#544=ORIENTED_EDGE('',*,*,#400,.F.);
#545=ORIENTED_EDGE('',*,*,#332,.T.);
#546=ORIENTED_EDGE('',*,*,#329,.T.);
#547=ORIENTED_EDGE('',*,*,#326,.T.);
#548=ORIENTED_EDGE('',*,*,#323,.T.);
#549=ORIENTED_EDGE('',*,*,#320,.T.);
#550=ORIENTED_EDGE('',*,*,#341,.T.);
#551=ORIENTED_EDGE('',*,*,#338,.T.);
#552=ORIENTED_EDGE('',*,*,#335,.T.);
#553=ORIENTED_EDGE('',*,*,#401,.T.);
#554=ORIENTED_EDGE('',*,*,#400,.T.);
#555=ORIENTED_EDGE('',*,*,#375,.F.);
#556=ORIENTED_EDGE('',*,*,#402,.F.);
#557=ORIENTED_EDGE('',*,*,#403,.F.);
#558=ORIENTED_EDGE('',*,*,#402,.T.);
#559=ORIENTED_EDGE('',*,*,#374,.F.);
#560=ORIENTED_EDGE('',*,*,#383,.F.);
#561=ORIENTED_EDGE('',*,*,#354,.T.);
#562=ORIENTED_EDGE('',*,*,#358,.T.);
#563=ORIENTED_EDGE('',*,*,#361,.T.);
#564=ORIENTED_EDGE('',*,*,#364,.T.);
#565=ORIENTED_EDGE('',*,*,#403,.T.);
#566=ORIENTED_EDGE('',*,*,#382,.F.);
#567=ORIENTED_EDGE('',*,*,#385,.T.);
#568=ORIENTED_EDGE('',*,*,#387,.T.);
#569=ORIENTED_EDGE('',*,*,#389,.F.);
#570=ORIENTED_EDGE('',*,*,#391,.F.);
#571=ORIENTED_EDGE('',*,*,#393,.F.);
#572=ORIENTED_EDGE('',*,*,#395,.T.);
#573=ORIENTED_EDGE('',*,*,#397,.F.);
#574=ORIENTED_EDGE('',*,*,#399,.F.);
#575=ORIENTED_EDGE('',*,*,#401,.F.);
#576=PLANE('',#650);
#577=PLANE('',#654);
#578=PLANE('',#658);
#579=PLANE('',#662);
#580=PLANE('',#669);
#581=PLANE('',#673);
#582=PLANE('',#677);
#583=PLANE('',#681);
#584=PLANE('',#682);
#585=PLANE('',#683);
#586=PLANE('',#684);
#587=PLANE('',#685);
#588=PLANE('',#686);
#589=PLANE('',#687);
#590=PLANE('',#688);
#591=PLANE('',#695);
#592=PLANE('',#696);
#593=PLANE('',#697);
#594=PLANE('',#698);
#595=PLANE('',#701);
#596=PLANE('',#704);
#597=PLANE('',#707);
#598=PLANE('',#708);
#599=PLANE('',#709);
#600=ADVANCED_FACE('',(#58),#576,.F.);
#601=ADVANCED_FACE('',(#59),#46,.F.);
#602=ADVANCED_FACE('',(#60),#577,.F.);
#603=ADVANCED_FACE('',(#61),#47,.F.);
#604=ADVANCED_FACE('',(#62),#578,.F.);
#605=ADVANCED_FACE('',(#63),#48,.F.);
#606=ADVANCED_FACE('',(#64),#579,.F.);
#607=ADVANCED_FACE('',(#65),#49,.F.);
#608=ADVANCED_FACE('',(#66),#50,.F.);
#609=ADVANCED_FACE('',(#67),#580,.T.);
#610=ADVANCED_FACE('',(#68),#51,.F.);
#611=ADVANCED_FACE('',(#69),#581,.T.);
#612=ADVANCED_FACE('',(#70),#52,.F.);
#613=ADVANCED_FACE('',(#71),#582,.T.);
#614=ADVANCED_FACE('',(#72),#53,.F.);
#615=ADVANCED_FACE('',(#73),#583,.T.);
#616=ADVANCED_FACE('',(#74),#584,.T.);
#617=ADVANCED_FACE('',(#75),#585,.T.);
#618=ADVANCED_FACE('',(#76,#15),#586,.T.);
#619=ADVANCED_FACE('',(#77),#587,.T.);
#620=ADVANCED_FACE('',(#78),#588,.T.);
#621=ADVANCED_FACE('',(#79),#589,.T.);
#622=ADVANCED_FACE('',(#80,#16,#17,#18,#19,#20),#590,.T.);
#623=ADVANCED_FACE('',(#81),#54,.T.);
#624=ADVANCED_FACE('',(#82),#591,.T.);
#625=ADVANCED_FACE('',(#83),#592,.T.);
#626=ADVANCED_FACE('',(#84),#593,.T.);
#627=ADVANCED_FACE('',(#85),#594,.T.);
#628=ADVANCED_FACE('',(#86),#55,.T.);
#629=ADVANCED_FACE('',(#87),#595,.T.);
#630=ADVANCED_FACE('',(#88),#56,.T.);
#631=ADVANCED_FACE('',(#89,#21),#596,.T.);
#632=ADVANCED_FACE('',(#90),#57,.T.);
#633=ADVANCED_FACE('',(#91),#597,.T.);
#634=ADVANCED_FACE('',(#92),#598,.T.);
#635=ADVANCED_FACE('',(#93),#599,.F.);
#636=CLOSED_SHELL('',(#600,#601,#602,#603,#604,#605,#606,#607,#608,#609,
#610,#611,#612,#613,#614,#615,#616,#617,#618,#619,#620,#621,#622,#623,#624,
#625,#626,#627,#628,#629,#630,#631,#632,#633,#634,#635));
#637=DERIVED_UNIT_ELEMENT(#639,1.);
#638=DERIVED_UNIT_ELEMENT(#1079,-3.);
#639=(
MASS_UNIT()
NAMED_UNIT(*)
SI_UNIT(.KILO.,.GRAM.)
);
#640=DERIVED_UNIT((#637,#638));
#641=MEASURE_REPRESENTATION_ITEM('density measure',
POSITIVE_RATIO_MEASURE(7850.),#640);
#642=PROPERTY_DEFINITION_REPRESENTATION(#647,#644);
#643=PROPERTY_DEFINITION_REPRESENTATION(#648,#645);
#644=REPRESENTATION('material name',(#646),#1076);
#645=REPRESENTATION('density',(#641),#1076);
#646=DESCRIPTIVE_REPRESENTATION_ITEM('Steel','Steel');
#647=PROPERTY_DEFINITION('material property','material name',#1086);
#648=PROPERTY_DEFINITION('material property','density of part',#1086);
#649=AXIS2_PLACEMENT_3D('',#894,#710,#711);
#650=AXIS2_PLACEMENT_3D('',#895,#712,#713);
#651=AXIS2_PLACEMENT_3D('',#904,#718,#719);
#652=AXIS2_PLACEMENT_3D('',#906,#720,#721);
#653=AXIS2_PLACEMENT_3D('',#908,#722,#723);
#654=AXIS2_PLACEMENT_3D('',#910,#725,#726);
#655=AXIS2_PLACEMENT_3D('',#916,#730,#731);
#656=AXIS2_PLACEMENT_3D('',#918,#732,#733);
#657=AXIS2_PLACEMENT_3D('',#920,#734,#735);
#658=AXIS2_PLACEMENT_3D('',#922,#737,#738);
#659=AXIS2_PLACEMENT_3D('',#928,#742,#743);
#660=AXIS2_PLACEMENT_3D('',#930,#744,#745);
#661=AXIS2_PLACEMENT_3D('',#932,#746,#747);
#662=AXIS2_PLACEMENT_3D('',#934,#749,#750);
#663=AXIS2_PLACEMENT_3D('',#940,#754,#755);
#664=AXIS2_PLACEMENT_3D('',#941,#756,#757);
#665=AXIS2_PLACEMENT_3D('',#942,#758,#759);
#666=AXIS2_PLACEMENT_3D('',#943,#760,#761);
#667=AXIS2_PLACEMENT_3D('',#945,#762,#763);
#668=AXIS2_PLACEMENT_3D('',#948,#765,#766);
#669=AXIS2_PLACEMENT_3D('',#949,#767,#768);
#670=AXIS2_PLACEMENT_3D('',#950,#769,#770);
#671=AXIS2_PLACEMENT_3D('',#952,#771,#772);
#672=AXIS2_PLACEMENT_3D('',#955,#774,#775);
#673=AXIS2_PLACEMENT_3D('',#956,#776,#777);
#674=AXIS2_PLACEMENT_3D('',#957,#778,#779);
#675=AXIS2_PLACEMENT_3D('',#959,#780,#781);
#676=AXIS2_PLACEMENT_3D('',#962,#783,#784);
#677=AXIS2_PLACEMENT_3D('',#963,#785,#786);
#678=AXIS2_PLACEMENT_3D('',#964,#787,#788);
#679=AXIS2_PLACEMENT_3D('',#966,#789,#790);
#680=AXIS2_PLACEMENT_3D('',#969,#792,#793);
#681=AXIS2_PLACEMENT_3D('',#970,#794,#795);
#682=AXIS2_PLACEMENT_3D('',#971,#796,#797);
#683=AXIS2_PLACEMENT_3D('',#980,#802,#803);
#684=AXIS2_PLACEMENT_3D('',#986,#807,#808);
#685=AXIS2_PLACEMENT_3D('',#992,#812,#813);
#686=AXIS2_PLACEMENT_3D('',#995,#816,#817);
#687=AXIS2_PLACEMENT_3D('',#1004,#822,#823);
#688=AXIS2_PLACEMENT_3D('',#1010,#827,#828);
#689=AXIS2_PLACEMENT_3D('',#1013,#829,#830);
#690=AXIS2_PLACEMENT_3D('',#1017,#832,#833);
#691=AXIS2_PLACEMENT_3D('',#1021,#835,#836);
#692=AXIS2_PLACEMENT_3D('',#1024,#838,#839);
#693=AXIS2_PLACEMENT_3D('',#1028,#842,#843);
#694=AXIS2_PLACEMENT_3D('',#1031,#844,#845);
#695=AXIS2_PLACEMENT_3D('',#1034,#848,#849);
#696=AXIS2_PLACEMENT_3D('',#1038,#852,#853);
#697=AXIS2_PLACEMENT_3D('',#1042,#856,#857);
#698=AXIS2_PLACEMENT_3D('',#1046,#860,#861);
#699=AXIS2_PLACEMENT_3D('',#1050,#864,#865);
#700=AXIS2_PLACEMENT_3D('',#1052,#866,#867);
#701=AXIS2_PLACEMENT_3D('',#1054,#869,#870);
#702=AXIS2_PLACEMENT_3D('',#1058,#873,#874);
#703=AXIS2_PLACEMENT_3D('',#1060,#875,#876);
#704=AXIS2_PLACEMENT_3D('',#1062,#878,#879);
#705=AXIS2_PLACEMENT_3D('',#1066,#882,#883);
#706=AXIS2_PLACEMENT_3D('',#1068,#884,#885);
#707=AXIS2_PLACEMENT_3D('',#1070,#887,#888);
#708=AXIS2_PLACEMENT_3D('',#1072,#890,#891);
#709=AXIS2_PLACEMENT_3D('',#1073,#892,#893);
#710=DIRECTION('axis',(0.,0.,1.));
#711=DIRECTION('refdir',(1.,0.,0.));
#712=DIRECTION('center_axis',(0.,0.,1.));
#713=DIRECTION('ref_axis',(-1.,0.,0.));
#714=DIRECTION('',(1.,0.,0.));
#715=DIRECTION('',(0.,-1.,0.));
#716=DIRECTION('',(-1.,0.,0.));
#717=DIRECTION('',(0.,-1.,0.));
#718=DIRECTION('center_axis',(0.,-1.,0.));
#719=DIRECTION('ref_axis',(0.,0.,1.));
#720=DIRECTION('center_axis',(0.,1.,0.));
#721=DIRECTION('ref_axis',(0.,0.,1.));
#722=DIRECTION('center_axis',(0.,-1.,0.));
#723=DIRECTION('ref_axis',(0.,0.,1.));
#724=DIRECTION('',(0.,-1.,0.));
#725=DIRECTION('center_axis',(1.,0.,0.));
#726=DIRECTION('ref_axis',(0.,0.,1.));
#727=DIRECTION('',(0.,0.,-1.));
#728=DIRECTION('',(0.,0.,1.));
#729=DIRECTION('',(0.,-1.,0.));
#730=DIRECTION('center_axis',(0.,-1.,0.));
#731=DIRECTION('ref_axis',(1.,0.,0.));
#732=DIRECTION('center_axis',(0.,1.,0.));
#733=DIRECTION('ref_axis',(1.,0.,0.));
#734=DIRECTION('center_axis',(0.,-1.,0.));
#735=DIRECTION('ref_axis',(1.,0.,0.));
#736=DIRECTION('',(0.,-1.,0.));
#737=DIRECTION('center_axis',(-4.25372824594331E-17,0.,-1.));
#738=DIRECTION('ref_axis',(1.,0.,-4.25372824594331E-17));
#739=DIRECTION('',(-1.,0.,4.25372824594331E-17));
#740=DIRECTION('',(1.,0.,-4.25372824594331E-17));
#741=DIRECTION('',(0.,-1.,0.));
#742=DIRECTION('center_axis',(0.,-1.,0.));
#743=DIRECTION('ref_axis',(0.,0.,-1.));
#744=DIRECTION('center_axis',(0.,1.,0.));
#745=DIRECTION('ref_axis',(0.,0.,-1.));
#746=DIRECTION('center_axis',(0.,-1.,0.));
#747=DIRECTION('ref_axis',(0.,0.,-1.));
#748=DIRECTION('',(0.,-1.,0.));
#749=DIRECTION('center_axis',(-1.,0.,0.));
#750=DIRECTION('ref_axis',(0.,0.,-1.));
#751=DIRECTION('',(0.,0.,1.));
#752=DIRECTION('',(0.,0.,-1.));
#753=DIRECTION('',(0.,-1.,0.));
#754=DIRECTION('center_axis',(0.,-1.,0.));
#755=DIRECTION('ref_axis',(-1.,0.,0.));
#756=DIRECTION('center_axis',(0.,1.,0.));
#757=DIRECTION('ref_axis',(-1.,0.,0.));
#758=DIRECTION('center_axis',(0.,-1.,0.));
#759=DIRECTION('ref_axis',(-1.,0.,0.));
#760=DIRECTION('center_axis',(0.,0.,-1.));
#761=DIRECTION('ref_axis',(-1.,0.,0.));
#762=DIRECTION('center_axis',(0.,0.,-1.));
#763=DIRECTION('ref_axis',(-1.,0.,0.));
#764=DIRECTION('',(0.,0.,-1.));
#765=DIRECTION('center_axis',(0.,0.,-1.));
#766=DIRECTION('ref_axis',(-1.,0.,0.));
#767=DIRECTION('center_axis',(0.,0.,1.));
#768=DIRECTION('ref_axis',(-1.,0.,0.));
#769=DIRECTION('center_axis',(0.,0.,-1.));
#770=DIRECTION('ref_axis',(-1.,0.,0.));
#771=DIRECTION('center_axis',(0.,0.,-1.));
#772=DIRECTION('ref_axis',(-1.,0.,0.));
#773=DIRECTION('',(0.,0.,-1.));
#774=DIRECTION('center_axis',(0.,0.,-1.));
#775=DIRECTION('ref_axis',(-1.,0.,0.));
#776=DIRECTION('center_axis',(0.,0.,1.));
#777=DIRECTION('ref_axis',(-1.,0.,0.));
#778=DIRECTION('center_axis',(0.,0.,-1.));
#779=DIRECTION('ref_axis',(-1.,0.,0.));
#780=DIRECTION('center_axis',(0.,0.,-1.));
#781=DIRECTION('ref_axis',(-1.,0.,0.));
#782=DIRECTION('',(0.,0.,-1.));
#783=DIRECTION('center_axis',(0.,0.,-1.));
#784=DIRECTION('ref_axis',(-1.,0.,0.));
#785=DIRECTION('center_axis',(0.,0.,1.));
#786=DIRECTION('ref_axis',(-1.,0.,0.));
#787=DIRECTION('center_axis',(0.,0.,-1.));
#788=DIRECTION('ref_axis',(-1.,0.,0.));
#789=DIRECTION('center_axis',(0.,0.,-1.));
#790=DIRECTION('ref_axis',(-1.,0.,0.));
#791=DIRECTION('',(0.,0.,-1.));
#792=DIRECTION('center_axis',(0.,0.,-1.));
#793=DIRECTION('ref_axis',(-1.,0.,0.));
#794=DIRECTION('center_axis',(0.,0.,1.));
#795=DIRECTION('ref_axis',(-1.,0.,0.));
#796=DIRECTION('center_axis',(0.,1.,0.));
#797=DIRECTION('ref_axis',(-1.,0.,0.));
#798=DIRECTION('',(1.,0.,0.));
#799=DIRECTION('',(0.,0.,1.));
#800=DIRECTION('',(-1.,0.,0.));
#801=DIRECTION('',(0.,0.,1.));
#802=DIRECTION('center_axis',(-1.,0.,0.));
#803=DIRECTION('ref_axis',(0.,-1.,0.));
#804=DIRECTION('',(0.,1.,0.));
#805=DIRECTION('',(0.,-1.,0.));
#806=DIRECTION('',(0.,0.,1.));
#807=DIRECTION('center_axis',(0.,-1.,0.));
#808=DIRECTION('ref_axis',(1.,0.,0.));
#809=DIRECTION('',(-1.,0.,0.));
#810=DIRECTION('',(1.,0.,0.));
#811=DIRECTION('',(0.,0.,1.));
#812=DIRECTION('center_axis',(1.,0.,0.));
#813=DIRECTION('ref_axis',(0.,1.,0.));
#814=DIRECTION('',(0.,-1.,0.));
#815=DIRECTION('',(0.,1.,0.));
#816=DIRECTION('center_axis',(-2.98023223876941E-7,-0.999999999999956,0.));
#817=DIRECTION('ref_axis',(0.999999999999956,-2.98023223876941E-7,0.));
#818=DIRECTION('',(0.999999999999999,-2.98023222396656E-8,0.));
#819=DIRECTION('',(0.,0.,1.));
#820=DIRECTION('',(0.999999999999956,-2.98023223876941E-7,0.));
#821=DIRECTION('',(0.,0.,1.));
#822=DIRECTION('center_axis',(2.3841856808815E-8,-1.,0.));
#823=DIRECTION('ref_axis',(1.,2.3841856808815E-8,0.));
#824=DIRECTION('',(1.,0.,0.));
#825=DIRECTION('',(1.,2.3841856808815E-8,0.));
#826=DIRECTION('',(0.,0.,1.));
#827=DIRECTION('center_axis',(0.,0.,1.));
#828=DIRECTION('ref_axis',(-1.,0.,0.));
#829=DIRECTION('center_axis',(0.,0.,1.));
#830=DIRECTION('ref_axis',(4.4408920985006E-15,-1.,0.));
#831=DIRECTION('',(7.8739221604621E-17,1.,0.));
#832=DIRECTION('center_axis',(0.,0.,1.));
#833=DIRECTION('ref_axis',(1.,0.,0.));
#834=DIRECTION('',(-1.,0.,0.));
#835=DIRECTION('center_axis',(0.,0.,1.));
#836=DIRECTION('ref_axis',(6.66133814775096E-15,1.,0.));
#837=DIRECTION('',(3.93696107815072E-17,-1.,0.));
#838=DIRECTION('center_axis',(0.,0.,1.));
#839=DIRECTION('ref_axis',(-1.,-2.22044604925031E-15,0.));
#840=DIRECTION('',(1.,1.98022071744475E-8,0.));
#841=DIRECTION('',(1.,0.,0.));
#842=DIRECTION('center_axis',(0.,0.,1.));
#843=DIRECTION('ref_axis',(4.4408920985006E-15,-1.,0.));
#844=DIRECTION('center_axis',(0.,0.,1.));
#845=DIRECTION('ref_axis',(4.4408920985006E-15,-1.,0.));
#846=DIRECTION('',(0.,0.,1.));
#847=DIRECTION('',(0.,0.,1.));
#848=DIRECTION('center_axis',(0.,-1.,0.));
#849=DIRECTION('ref_axis',(1.,0.,0.));
#850=DIRECTION('',(-1.,0.,0.));
#851=DIRECTION('',(0.,0.,1.));
#852=DIRECTION('center_axis',(1.98022071744475E-8,-1.,0.));
#853=DIRECTION('ref_axis',(1.,1.98022071744475E-8,0.));
#854=DIRECTION('',(-1.,-1.98022071744475E-8,0.));
#855=DIRECTION('',(0.,0.,1.));
#856=DIRECTION('center_axis',(-2.98023222396656E-8,-1.,0.));
#857=DIRECTION('ref_axis',(1.,-2.98023222396656E-8,0.));
#858=DIRECTION('',(0.999999999999999,-2.98023222396656E-8,0.));
#859=DIRECTION('',(0.,0.,1.));
#860=DIRECTION('center_axis',(0.,-1.,0.));
#861=DIRECTION('ref_axis',(1.,0.,0.));
#862=DIRECTION('',(1.,0.,0.));
#863=DIRECTION('',(0.,0.,1.));
#864=DIRECTION('center_axis',(0.,0.,1.));
#865=DIRECTION('ref_axis',(-1.,0.,0.));
#866=DIRECTION('center_axis',(0.,0.,1.));
#867=DIRECTION('ref_axis',(-1.,0.,0.));
#868=DIRECTION('',(0.,0.,1.));
#869=DIRECTION('center_axis',(-1.,0.,0.));
#870=DIRECTION('ref_axis',(0.,-1.,0.));
#871=DIRECTION('',(0.,1.,0.));
#872=DIRECTION('',(0.,0.,1.));
#873=DIRECTION('center_axis',(0.,0.,1.));
#874=DIRECTION('ref_axis',(5.5511151231258E-15,1.,0.));
#875=DIRECTION('center_axis',(0.,0.,1.));
#876=DIRECTION('ref_axis',(5.5511151231258E-15,1.,0.));
#877=DIRECTION('',(0.,0.,1.));
#878=DIRECTION('center_axis',(0.,1.,0.));
#879=DIRECTION('ref_axis',(-1.,0.,0.));
#880=DIRECTION('',(-1.,0.,0.));
#881=DIRECTION('',(0.,0.,1.));
#882=DIRECTION('center_axis',(0.,0.,1.));
#883=DIRECTION('ref_axis',(1.,0.,0.));
#884=DIRECTION('center_axis',(0.,0.,1.));
#885=DIRECTION('ref_axis',(1.,0.,0.));
#886=DIRECTION('',(0.,0.,1.));
#887=DIRECTION('center_axis',(1.,0.,0.));
#888=DIRECTION('ref_axis',(0.,1.,0.));
#889=DIRECTION('',(0.,-1.,0.));
#890=DIRECTION('center_axis',(0.,0.,1.));
#891=DIRECTION('ref_axis',(1.,0.,0.));
#892=DIRECTION('center_axis',(0.,0.,1.));
#893=DIRECTION('ref_axis',(1.,0.,0.));
#894=CARTESIAN_POINT('',(0.,0.,0.));
#895=CARTESIAN_POINT('Origin',(23.5499992918783,106.8,10.4999999999997));
#896=CARTESIAN_POINT('',(10.4999998509881,98.7,10.4999999999997));
#897=CARTESIAN_POINT('',(23.5499992918783,98.7,10.4999999999997));
#898=CARTESIAN_POINT('',(11.1332777690003,98.7,10.4999999999997));
#899=CARTESIAN_POINT('',(10.4999998509881,106.8,10.4999999999997));
#900=CARTESIAN_POINT('',(10.4999998509881,106.8,10.4999999999997));
#901=CARTESIAN_POINT('',(23.5499992918783,106.8,10.4999999999997));
#902=CARTESIAN_POINT('',(44.3499992918783,106.8,10.4999999999997));
#903=CARTESIAN_POINT('',(23.5499992918783,106.8,10.4999999999997));
#904=CARTESIAN_POINT('Origin',(23.5499992918783,106.8,8.49999999999969));
#905=CARTESIAN_POINT('',(25.5499992918783,98.7,8.49999999999969));
#906=CARTESIAN_POINT('Origin',(23.5499992918783,98.7,8.49999999999969));
#907=CARTESIAN_POINT('',(25.5499992918783,106.8,8.49999999999969));
#908=CARTESIAN_POINT('Origin',(23.5499992918783,106.8,8.49999999999969));
#909=CARTESIAN_POINT('',(25.5499992918783,106.8,8.49999999999969));
#910=CARTESIAN_POINT('Origin',(25.5499992918783,106.8,5.5));
#911=CARTESIAN_POINT('',(25.5499992918783,98.7,5.5));
#912=CARTESIAN_POINT('',(25.5499992918783,98.7,3.75));
#913=CARTESIAN_POINT('',(25.5499992918783,106.8,5.5));
#914=CARTESIAN_POINT('',(25.5499992918783,106.8,2.75));
#915=CARTESIAN_POINT('',(25.5499992918783,106.8,5.5));
#916=CARTESIAN_POINT('Origin',(23.5499992918783,106.8,5.5));
#917=CARTESIAN_POINT('',(23.5499992918783,98.7,3.5));
#918=CARTESIAN_POINT('Origin',(23.5499992918783,98.7,5.5));
#919=CARTESIAN_POINT('',(23.5499992918783,106.8,3.5));
#920=CARTESIAN_POINT('Origin',(23.5499992918783,106.8,5.5));
#921=CARTESIAN_POINT('',(23.5499992918783,106.8,3.5));
#922=CARTESIAN_POINT('Origin',(10.4999998509884,106.8,3.5));
#923=CARTESIAN_POINT('',(10.4999998509884,98.7,3.5));
#924=CARTESIAN_POINT('',(4.60827804855534,98.7,3.5));
#925=CARTESIAN_POINT('',(10.4999998509884,106.8,3.5));
#926=CARTESIAN_POINT('',(37.8249995714334,106.8,3.5));
#927=CARTESIAN_POINT('',(10.4999998509884,106.8,3.5));
#928=CARTESIAN_POINT('Origin',(10.4999998509884,106.8,5.5));
#929=CARTESIAN_POINT('',(8.49999985098839,98.7,5.5));
#930=CARTESIAN_POINT('Origin',(10.4999998509884,98.7,5.5));
#931=CARTESIAN_POINT('',(8.49999985098839,106.8,5.5));
#932=CARTESIAN_POINT('Origin',(10.4999998509884,106.8,5.5));
#933=CARTESIAN_POINT('',(8.49999985098839,106.8,5.5));
#934=CARTESIAN_POINT('Origin',(8.49999985098839,106.8,8.5));
#935=CARTESIAN_POINT('',(8.49999985098839,98.7,8.5));
#936=CARTESIAN_POINT('',(8.49999985098839,98.7,5.25));
#937=CARTESIAN_POINT('',(8.49999985098839,106.8,8.5));
#938=CARTESIAN_POINT('',(8.49999985098839,106.8,4.25));
#939=CARTESIAN_POINT('',(8.49999985098839,106.8,8.5));
#940=CARTESIAN_POINT('Origin',(10.4999998509881,106.8,8.5));
#941=CARTESIAN_POINT('Origin',(10.4999998509881,98.7,8.5));
#942=CARTESIAN_POINT('Origin',(10.4999998509881,106.8,8.5));
#943=CARTESIAN_POINT('Origin',(-5.50000014901161,102.3,14.));
#944=CARTESIAN_POINT('',(-3.40000014901161,102.3,14.));
#945=CARTESIAN_POINT('Origin',(-5.50000014901161,102.3,14.));
#946=CARTESIAN_POINT('',(-3.40000014901161,102.3,1.));
#947=CARTESIAN_POINT('',(-3.40000014901161,102.3,14.));
#948=CARTESIAN_POINT('Origin',(-5.50000014901161,102.3,1.));
#949=CARTESIAN_POINT('Origin',(-5.50000014901161,102.3,1.));
#950=CARTESIAN_POINT('Origin',(62.6499992918783,-5.50000014901161,14.));
#951=CARTESIAN_POINT('',(64.7499992918783,-5.50000014901161,14.));
#952=CARTESIAN_POINT('Origin',(62.6499992918783,-5.50000014901161,14.));
#953=CARTESIAN_POINT('',(64.7499992918783,-5.50000014901161,1.));
#954=CARTESIAN_POINT('',(64.7499992918783,-5.50000014901161,14.));
#955=CARTESIAN_POINT('Origin',(62.6499992918783,-5.50000014901161,1.));
#956=CARTESIAN_POINT('Origin',(62.6499992918783,-5.50000014901161,1.));
#957=CARTESIAN_POINT('Origin',(62.6499992918783,102.3,14.));
#958=CARTESIAN_POINT('',(64.7499992918783,102.3,14.));
#959=CARTESIAN_POINT('Origin',(62.6499992918783,102.3,14.));
#960=CARTESIAN_POINT('',(64.7499992918783,102.3,1.));
#961=CARTESIAN_POINT('',(64.7499992918783,102.3,14.));
#962=CARTESIAN_POINT('Origin',(62.6499992918783,102.3,1.));
#963=CARTESIAN_POINT('Origin',(62.6499992918783,102.3,1.));
#964=CARTESIAN_POINT('Origin',(-5.50000014901161,-5.50000014901161,14.));
#965=CARTESIAN_POINT('',(-3.40000014901161,-5.50000014901161,14.));
#966=CARTESIAN_POINT('Origin',(-5.50000014901161,-5.50000014901161,14.));
#967=CARTESIAN_POINT('',(-3.40000014901161,-5.50000014901161,1.));
#968=CARTESIAN_POINT('',(-3.40000014901161,-5.50000014901161,14.));
#969=CARTESIAN_POINT('Origin',(-5.50000014901161,-5.50000014901161,1.));
#970=CARTESIAN_POINT('Origin',(-5.50000014901161,-5.50000014901161,1.));
#971=CARTESIAN_POINT('Origin',(59.0499992918783,-1.90000014901161,2.));
#972=CARTESIAN_POINT('',(-1.28344375387771,-1.90000014901161,2.));
#973=CARTESIAN_POINT('',(59.0499992918783,-1.90000014901161,2.));
#974=CARTESIAN_POINT('',(43.8124994316558,-1.90000014901162,2.));
#975=CARTESIAN_POINT('',(-1.28344375387771,-1.90000014901161,14.));
#976=CARTESIAN_POINT('',(-1.28344375387771,-1.90000014901161,2.));
#977=CARTESIAN_POINT('',(59.0499992918783,-1.90000014901161,14.));
#978=CARTESIAN_POINT('',(-1.28344375387771,-1.90000014901161,14.));
#979=CARTESIAN_POINT('',(59.0499992918783,-1.90000014901161,2.));
#980=CARTESIAN_POINT('Origin',(59.0499992918783,98.7,2.));
#981=CARTESIAN_POINT('',(59.0499992918783,98.7,2.));
#982=CARTESIAN_POINT('',(59.0499992918783,73.5499999627471,2.));
#983=CARTESIAN_POINT('',(59.0499992918783,98.7,14.));
#984=CARTESIAN_POINT('',(59.0499992918783,-1.90000014901161,14.));
#985=CARTESIAN_POINT('',(59.0499992918783,98.7,2.));
#986=CARTESIAN_POINT('Origin',(-1.28344375387771,98.7,2.));
#987=CARTESIAN_POINT('',(-1.28344375387771,98.7,2.));
#988=CARTESIAN_POINT('',(13.6457779087778,98.7,2.));
#989=CARTESIAN_POINT('',(-1.28344375387771,98.7,14.));
#990=CARTESIAN_POINT('',(59.0499992918783,98.7,14.));
#991=CARTESIAN_POINT('',(-1.28344375387771,98.7,2.));
#992=CARTESIAN_POINT('Origin',(-1.28344375387771,-1.90000014901161,2.));
#993=CARTESIAN_POINT('',(-1.28344375387771,23.2499998882413,2.));
#994=CARTESIAN_POINT('',(-1.28344375387771,98.7,14.));
#995=CARTESIAN_POINT('Origin',(-5.50000014901161,-10.,2.));
#996=CARTESIAN_POINT('',(-5.50000014901161,-10.,2.));
#997=CARTESIAN_POINT('',(-5.00000014901161,-10.0000001490116,2.));
#998=CARTESIAN_POINT('',(-8.00000020861625,-10.0000000596046,2.));
#999=CARTESIAN_POINT('',(-5.00000014901161,-10.0000001490116,14.));
#1000=CARTESIAN_POINT('',(-5.00000014901161,-10.0000001490116,2.));
#1001=CARTESIAN_POINT('',(-5.50000014901161,-10.,14.));
#1002=CARTESIAN_POINT('',(-5.50000014901161,-10.,14.));
#1003=CARTESIAN_POINT('',(-5.50000014901161,-10.,2.));
#1004=CARTESIAN_POINT('Origin',(-8.00000020861626,-10.0000000596046,2.));
#1005=CARTESIAN_POINT('',(-8.00000020861625,-10.,2.));
#1006=CARTESIAN_POINT('',(-10.0000001490116,-10.,2.));
#1007=CARTESIAN_POINT('',(-8.00000020861626,-10.0000000596046,14.));
#1008=CARTESIAN_POINT('',(-8.00000020861626,-10.0000000596046,14.));
#1009=CARTESIAN_POINT('',(-8.00000020861626,-10.0000000596046,2.));
#1010=CARTESIAN_POINT('Origin',(28.5749995714334,48.3999999254942,14.));
#1011=CARTESIAN_POINT('',(65.1499992918783,-10.,14.));
#1012=CARTESIAN_POINT('',(67.1499992918783,-8.00000000000001,14.));
#1013=CARTESIAN_POINT('Origin',(65.1499992918783,-7.99999999999999,14.));
#1014=CARTESIAN_POINT('',(67.1499992918783,104.8,14.));
#1015=CARTESIAN_POINT('',(67.1499992918783,-8.00000000000001,14.));
#1016=CARTESIAN_POINT('',(65.1499992918783,106.8,14.));
#1017=CARTESIAN_POINT('Origin',(65.1499992918783,104.8,14.));
#1018=CARTESIAN_POINT('',(-8.00000014901161,106.8,14.));
#1019=CARTESIAN_POINT('',(65.1499992918783,106.8,14.));
#1020=CARTESIAN_POINT('',(-10.0000001490116,104.8,14.));
#1021=CARTESIAN_POINT('Origin',(-8.00000014901162,104.8,14.));
#1022=CARTESIAN_POINT('',(-10.0000001490116,-8.00000005960465,14.));
#1023=CARTESIAN_POINT('',(-10.0000001490116,104.8,14.));
#1024=CARTESIAN_POINT('Origin',(-8.00000014901161,-8.00000005960464,14.));
#1025=CARTESIAN_POINT('',(2.525,-10.,14.));
#1026=CARTESIAN_POINT('',(-5.00000014901161,-10.0000001490116,14.));
#1027=CARTESIAN_POINT('',(2.525,-10.,14.));
#1028=CARTESIAN_POINT('Origin',(65.1499992918783,-7.99999999999999,0.));
#1029=CARTESIAN_POINT('',(65.1499992918783,-10.,0.));
#1030=CARTESIAN_POINT('',(67.1499992918783,-8.,0.));
#1031=CARTESIAN_POINT('Origin',(65.1499992918783,-7.99999999999999,0.));
#1032=CARTESIAN_POINT('',(67.1499992918783,-8.,0.));
#1033=CARTESIAN_POINT('',(65.1499992918783,-10.,0.));
#1034=CARTESIAN_POINT('Origin',(2.525,-10.,0.));
#1035=CARTESIAN_POINT('',(2.525,-10.,0.));
#1036=CARTESIAN_POINT('',(65.1499992918783,-10.,0.));
#1037=CARTESIAN_POINT('',(2.525,-10.,0.));
#1038=CARTESIAN_POINT('Origin',(-5.00000014901161,-10.0000001490116,0.));
#1039=CARTESIAN_POINT('',(-5.00000014901161,-10.0000001490116,0.));
#1040=CARTESIAN_POINT('',(2.525,-10.,0.));
#1041=CARTESIAN_POINT('',(-5.00000014901161,-10.0000001490116,0.));
#1042=CARTESIAN_POINT('Origin',(-5.50000014901162,-10.0000001341105,0.));
#1043=CARTESIAN_POINT('',(-5.50000014901161,-10.,0.));
#1044=CARTESIAN_POINT('',(-8.00000020861625,-10.0000000596046,0.));
#1045=CARTESIAN_POINT('',(-5.50000014901161,-10.,0.));
#1046=CARTESIAN_POINT('Origin',(-8.00000020861625,-10.,0.));
#1047=CARTESIAN_POINT('',(-8.00000020861625,-10.,0.));
#1048=CARTESIAN_POINT('',(-10.0000001490116,-10.,0.));
#1049=CARTESIAN_POINT('',(-8.00000020861625,-10.,0.));
#1050=CARTESIAN_POINT('Origin',(-8.00000014901161,-8.00000005960464,0.));
#1051=CARTESIAN_POINT('',(-10.0000001490116,-8.00000005960464,0.));
#1052=CARTESIAN_POINT('Origin',(-8.00000014901161,-8.00000005960464,0.));
#1053=CARTESIAN_POINT('',(-10.0000001490116,-8.00000005960464,0.));
#1054=CARTESIAN_POINT('Origin',(-10.0000001490116,104.8,0.));
#1055=CARTESIAN_POINT('',(-10.0000001490116,104.8,0.));
#1056=CARTESIAN_POINT('',(-10.0000001490116,102.3,0.));
#1057=CARTESIAN_POINT('',(-10.0000001490116,104.8,0.));
#1058=CARTESIAN_POINT('Origin',(-8.00000014901162,104.8,0.));
#1059=CARTESIAN_POINT('',(-8.00000014901161,106.8,0.));
#1060=CARTESIAN_POINT('Origin',(-8.00000014901162,104.8,0.));
#1061=CARTESIAN_POINT('',(-8.00000014901161,106.8,0.));
#1062=CARTESIAN_POINT('Origin',(65.1499992918783,106.8,0.));
#1063=CARTESIAN_POINT('',(65.1499992918783,106.8,0.));
#1064=CARTESIAN_POINT('',(67.1499992918783,106.8,0.));
#1065=CARTESIAN_POINT('',(65.1499992918783,106.8,0.));
#1066=CARTESIAN_POINT('Origin',(65.1499992918783,104.8,0.));
#1067=CARTESIAN_POINT('',(67.1499992918783,104.8,0.));
#1068=CARTESIAN_POINT('Origin',(65.1499992918783,104.8,0.));
#1069=CARTESIAN_POINT('',(67.1499992918783,104.8,0.));
#1070=CARTESIAN_POINT('Origin',(67.1499992918783,-8.,0.));
#1071=CARTESIAN_POINT('',(67.1499992918783,-5.5,0.));
#1072=CARTESIAN_POINT('Origin',(28.5749995714334,48.3999999254942,2.));
#1073=CARTESIAN_POINT('Origin',(28.5749995714334,48.3999999254942,0.));
#1074=UNCERTAINTY_MEASURE_WITH_UNIT(LENGTH_MEASURE(0.01),#1078,
'DISTANCE_ACCURACY_VALUE',
'Maximum model space distance between geometric entities at asserted c
onnectivities');
#1075=UNCERTAINTY_MEASURE_WITH_UNIT(LENGTH_MEASURE(0.01),#1078,
'DISTANCE_ACCURACY_VALUE',
'Maximum model space distance between geometric entities at asserted c
onnectivities');
#1076=(
GEOMETRIC_REPRESENTATION_CONTEXT(3)
GLOBAL_UNCERTAINTY_ASSIGNED_CONTEXT((#1074))
GLOBAL_UNIT_ASSIGNED_CONTEXT((#1078,#1080,#1081))
REPRESENTATION_CONTEXT('','3D')
);
#1077=(
GEOMETRIC_REPRESENTATION_CONTEXT(3)
GLOBAL_UNCERTAINTY_ASSIGNED_CONTEXT((#1075))
GLOBAL_UNIT_ASSIGNED_CONTEXT((#1078,#1080,#1081))
REPRESENTATION_CONTEXT('','3D')
);
#1078=(
LENGTH_UNIT()
NAMED_UNIT(*)
SI_UNIT(.MILLI.,.METRE.)
);
#1079=(
LENGTH_UNIT()
NAMED_UNIT(*)
SI_UNIT($,.METRE.)
);
#1080=(
NAMED_UNIT(*)
PLANE_ANGLE_UNIT()
SI_UNIT($,.RADIAN.)
);
#1081=(
NAMED_UNIT(*)
SI_UNIT($,.STERADIAN.)
SOLID_ANGLE_UNIT()
);
#1082=SHAPE_DEFINITION_REPRESENTATION(#1083,#1084);
#1083=PRODUCT_DEFINITION_SHAPE('',$,#1086);
#1084=SHAPE_REPRESENTATION('',(#649),#1076);
#1085=PRODUCT_DEFINITION_CONTEXT('part definition',#1090,'design');
#1086=PRODUCT_DEFINITION('2026-08-07-14-00-54-501','bottom',#1087,#1085);
#1087=PRODUCT_DEFINITION_FORMATION('',$,#1092);
#1088=PRODUCT_RELATED_PRODUCT_CATEGORY('bottom','bottom',(#1092));
#1089=APPLICATION_PROTOCOL_DEFINITION('international standard',
'automotive_design',2009,#1090);
#1090=APPLICATION_CONTEXT(
'Core Data for Automotive Mechanical Design Process');
#1091=PRODUCT_CONTEXT('part definition',#1090,'mechanical');
#1092=PRODUCT('2026-08-07-14-00-54-501','bottom',$,(#1091));
#1093=PRESENTATION_STYLE_ASSIGNMENT((#1094));
#1094=SURFACE_STYLE_USAGE(.BOTH.,#1095);
#1095=SURFACE_SIDE_STYLE('',(#1096));
#1096=SURFACE_STYLE_FILL_AREA(#1097);
#1097=FILL_AREA_STYLE('Steel - Satin',(#1098));
#1098=FILL_AREA_STYLE_COLOUR('Steel - Satin',#1099);
#1099=COLOUR_RGB('Steel - Satin',0.627450980392157,0.627450980392157,0.627450980392157);
ENDSEC;
END-ISO-10303-21;
